<svg width="24" height="24" viewBox="0 0 24 24" fill="none" xmlns="http://www.w3.org/2000/svg">
<path d="M9 22H15C20 22 22 20 22 15V9C22 4 20 2 15 2H9C4 2 2 4 2 9V15C2 20 4 22 9 22Z" stroke="#8E95A9" stroke-width="1.5" stroke-linecap="round" stroke-linejoin="round"/>
<path d="M16.2802 13.61C15.1502 14.74 13.5302 15.09 12.1002 14.64L9.5102 17.22C9.3302 17.41 8.9602 17.53 8.6902 17.49L7.4902 17.33C7.0902 17.28 6.7302 16.9 6.6702 16.51L6.5102 15.31C6.4702 15.05 6.6002 14.68 6.7802 14.49L9.3602 11.91C8.9202 10.48 9.2602 8.86001 10.3902 7.73001C12.0102 6.11001 14.6502 6.11001 16.2802 7.73001C17.9002 9.34001 17.9002 11.98 16.2802 13.61Z" stroke="#8E95A9" stroke-width="1.5" stroke-miterlimit="10" stroke-linecap="round" stroke-linejoin="round"/>
<path d="M10.4496 16.28L9.59961 15.42" stroke="#8E95A9" stroke-width="1.5" stroke-miterlimit="10" stroke-linecap="round" stroke-linejoin="round"/>
<path d="M13.3949 10.7H13.4039" stroke="#8E95A9" stroke-width="2" stroke-linecap="round" stroke-linejoin="round"/>
</svg>
